<svg xmlns="http://www.w3.org/2000/svg" viewBox="0 0 143.93 29.48"><defs><style>.cls-1{fill:#fff;}.cls-2{fill:#231f20;}.cls-3{fill:#e62532;}</style></defs><title>kingston</title><g id="Capa_2" data-name="Capa 2"><path class="cls-1" d="M33.29,17.19v7.34c0,2.75.32,4,3.1,4v.26H25.67v-.26c3.18,0,2.8-3.41,2.8-6.16V14.55c0-2.75.57-8.18-2.61-8.18V6.11H36.13v.26c-2.65,0-2.84,1.61-2.84,4.35v5.76l.46,0c4.3-4.28,4.78-5,5.07-5.51,2.15-3.49.12-4.53-1.06-4.53V6.07H46.5v.39c-1.49,0-4.3,2.33-6,3.68l-6.45,6.48c8.8.41,8.61,5,9.59,8.42.56,1.92.92,3.12,3,3.53v.23H38.87c-1.2-6.64-1.77-12.18-5.58-11.61"/><path class="cls-1" d="M54.05,18.13c0,3.14.51,4,2.34,4v.23H47.26v-.23c1.86,0,2-2.16,2-4V9.85c0-2.18-.46-3.37-2.33-3.37v-.4h7.11v12"/><path class="cls-1" d="M51.58,0a2.57,2.57,0,0,1,2.55,2.54,2.55,2.55,0,0,1-5.09,0A2.56,2.56,0,0,1,51.58,0"/><path class="cls-1" d="M63.58,8.1c1.6-2.3,2.68-2.35,4.51-2.35,4.36,0,4.73,3.34,4.73,6.17v6.21c0,3.05.32,4,2,4v.23H66.16v-.23c1.52,0,1.52-1.32,1.52-4V11.82c0-2.27.25-5.13-1.49-5.13-2,0-2.07,1.6-2.61,2.51v8.93c0,2.67.16,4,1.68,4v.23H56.73v-.23c1.7,0,2-1.42,2-4V9.85c0-2.28-.41-3.38-2.27-3.38V6.08h7.14v2"/><path class="cls-1" d="M108.74,6.08h3.34l-.56,1.14h-2.78V17c0,4.93,2.84,4.51,4,3.44l.07.31a6.13,6.13,0,0,1-4.95,1.62,3.85,3.85,0,0,1-4-4.08V7.22h-2.76V7.09c2.16-.75,5.7-3.63,7.34-6h.29v5"/><path class="cls-1" d="M111.08,14.4c0-3.91,3.51-8.65,7.83-8.65,3.93,0,7.69,4.2,7.69,8.37,0,4.91-4.23,8.55-7.69,8.55a8.17,8.17,0,0,1-7.83-8.27ZM121.66,14c0-5-.17-7.88-2.75-7.88-2.83,0-2.63,3.77-2.63,7.88,0,4.95,0,8.41,2.63,8.41,3,0,2.75-3.46,2.75-8.41"/><path class="cls-1" d="M132.67,8.1c1.59-2.3,2.67-2.35,4.5-2.35,4.37,0,4.74,3.34,4.74,6.17v6.21c0,3.05.32,4,2,4v.23h-8.69v-.23c1.53,0,1.53-1.32,1.53-4V11.82c0-2.27.25-5.13-1.49-5.13-2,0-2.07,1.6-2.61,2.51v8.93c0,2.67.16,4,1.68,4v.23h-8.53v-.23c1.7,0,2-1.42,2-4V9.85c0-2.28-.41-3.38-2.27-3.38V6.08h7.14v2"/><path class="cls-1" d="M83.2,19.89c-.5.65-1.2,2.77-3.83,2.77-3.05,0-5.35-2.78-5.35-8.32,0-4.51,2.89-8.51,6.23-8.51a3.68,3.68,0,0,1,3.27,2.11V6.22H90.8v.35s-2.39-.48-2.39,2.94V22.07c-.24,3.41-1.72,5.75-7.62,7.41l0-.39c3.39-2.47,2.66-6.05,2.37-9.2Zm.42-6.32c0-3.69-.28-7.28-2.65-7.28-1.65,0-2.08,2.9-2.08,8.15,0,4.4.37,7.35,2,7.35,1.48,0,2.68-3.34,2.68-6.9V13.57"/><path class="cls-1" d="M89.25,17.18h2.33c-.32,5.1,3.24,5.11,4.09,5.11a2.88,2.88,0,0,0,2.94-2.56c0-4.15-8.64-2.38-8.64-8.68A5.21,5.21,0,0,1,95.41,5.8c5.28,0,5.9,3.17,5.9,4.27h-2a3.46,3.46,0,0,0-3.49-4C93.09,6,93.2,8.27,93.2,8.42c0,4,9.35,2.57,9.35,8.5a5.92,5.92,0,0,1-5.91,5.67c-5.85.32-7.39-3.91-7.39-5.41"/><path class="cls-1" d="M140.26,4.7A1.69,1.69,0,1,1,142,6.4a1.69,1.69,0,0,1-1.69-1.7Zm3.1,0a1.42,1.42,0,1,0-2.84,0,1.42,1.42,0,1,0,2.84,0Zm-.57,1h-.28L142,4.78h-.42v.87h-.23V3.77h.82c.5,0,.67.18.67.49s-.26.51-.59.52l.57.87ZM141.9,4.6c.27,0,.66,0,.66-.34s-.24-.33-.47-.33h-.54V4.6h.35"/><polyline class="cls-1" points="47.81 23.68 51.94 23.68 51.94 24.28 50.22 24.28 50.22 28.76 49.52 28.76 49.52 24.28 47.81 24.28 47.81 23.68"/><polyline class="cls-1" points="57.16 28.76 57.16 23.68 60.87 23.68 60.87 24.3 57.84 24.3 57.84 25.84 60.64 25.84 60.64 26.43 57.84 26.43 57.84 28.15 60.92 28.15 60.92 28.76 57.16 28.76"/><path class="cls-1" d="M68.5,23.54A2.14,2.14,0,0,1,70,24a1.84,1.84,0,0,1,.59,1.16h-.67a1.44,1.44,0,0,0-.46-.78,1.42,1.42,0,0,0-.95-.28,1.55,1.55,0,0,0-1.22.52,2.47,2.47,0,0,0-.46,1.62,2.33,2.33,0,0,0,.42,1.45,1.46,1.46,0,0,0,1.24.56,1.31,1.31,0,0,0,1.16-.59,2.32,2.32,0,0,0,.32-.81h.67a2.3,2.3,0,0,1-.6,1.35,2.12,2.12,0,0,1-1.63.65,2.19,2.19,0,0,1-1.49-.53,2.82,2.82,0,0,1-.79-2.2,2.82,2.82,0,0,1,.59-1.84,2.19,2.19,0,0,1,1.78-.78"/><polyline class="cls-1" points="76.03 28.76 76.03 23.68 76.72 23.68 76.72 25.78 79.36 25.78 79.36 23.68 80.06 23.68 80.06 28.76 79.36 28.76 79.36 26.38 76.72 26.38 76.72 28.76 76.03 28.76"/><polyline class="cls-1" points="88.63 28.76 88.63 23.68 89.44 23.68 92.01 27.79 92.01 23.68 92.67 23.68 92.67 28.76 91.89 28.76 89.29 24.64 89.29 28.76 88.63 28.76"/><path class="cls-1" d="M99.72,27.71a2.34,2.34,0,0,1-.42-1.42,2.26,2.26,0,0,1,.5-1.6,1.66,1.66,0,0,1,1.28-.54,1.58,1.58,0,0,1,1.28.55,2.08,2.08,0,0,1,.47,1.44,2.76,2.76,0,0,1-.4,1.5,1.44,1.44,0,0,1-1.32.65,1.61,1.61,0,0,1-1.39-.58Zm-.62-3.23a3,3,0,0,0-.52,1.76,3,3,0,0,0,.6,1.89,2.32,2.32,0,0,0,1.85.78A2.29,2.29,0,0,0,103,28a3,3,0,0,0,.58-1.89A2.8,2.8,0,0,0,103,24.4a2.33,2.33,0,0,0-2-.86,2.19,2.19,0,0,0-1.94.94"/><polyline class="cls-1" points="109.46 28.76 109.46 23.68 110.15 23.68 110.15 28.15 112.72 28.15 112.72 28.76 109.46 28.76"/><path class="cls-1" d="M119.23,27.71a2.34,2.34,0,0,1-.42-1.42,2.26,2.26,0,0,1,.5-1.6,1.66,1.66,0,0,1,1.28-.54,1.62,1.62,0,0,1,1.29.55,2.13,2.13,0,0,1,.46,1.44,2.76,2.76,0,0,1-.4,1.5,1.44,1.44,0,0,1-1.32.65,1.61,1.61,0,0,1-1.39-.58Zm-.62-3.23a3,3,0,0,0-.52,1.76,2.93,2.93,0,0,0,.6,1.89,2.56,2.56,0,0,0,3.78-.11,3,3,0,0,0,.58-1.89,2.8,2.8,0,0,0-.51-1.73,2.33,2.33,0,0,0-2-.86,2.19,2.19,0,0,0-1.94.94"/><path class="cls-1" d="M131.17,23.54a2.6,2.6,0,0,1,1.23.28,1.8,1.8,0,0,1,.93,1.4h-.68a1.24,1.24,0,0,0-.51-.81,1.8,1.8,0,0,0-1-.26,1.56,1.56,0,0,0-1.19.53,2.28,2.28,0,0,0-.48,1.58,2.46,2.46,0,0,0,.4,1.47,1.45,1.45,0,0,0,1.29.57,1.64,1.64,0,0,0,1.14-.4,1.68,1.68,0,0,0,.47-1.29h-1.6V26h2.23v2.72H133l-.16-.66a2.74,2.74,0,0,1-.62.54,2.36,2.36,0,0,1-1.15.25,2.24,2.24,0,0,1-1.56-.58,2.79,2.79,0,0,1-.71-2,2.86,2.86,0,0,1,.69-2,2.19,2.19,0,0,1,1.71-.73"/><polyline class="cls-1" points="140.97 26.71 139.04 23.68 139.85 23.68 141.31 26.12 142.77 23.68 143.57 23.68 141.65 26.71 141.65 28.76 140.97 28.76 140.97 26.71"/><path class="cls-2" d="M1.15,4.6C1.05,4.19.91,3.21.91,3.21c-.18-.79.21-1,.21-1S4.69.34,11.26.18a25.45,25.45,0,0,1,8.85,1.05c.23.1.28.28.38.62A12,12,0,0,1,20.71,3a10.26,10.26,0,0,1,.13,1.88,8.18,8.18,0,0,1-.43,1.14c-.05.6.17,2.94.08,4.08a33.57,33.57,0,0,1-1.44,7.5c-1,2.66-2.64,2.23-3.49,2.23l4,9H0L2.89,13.17a.67.67,0,0,0-.3-.62,6.76,6.76,0,0,1-1.41-1.26s-.39-.44-.84-3c0,0-.37-2.41,0-2.94a3.32,3.32,0,0,1,.79-.57l0-.16"/><path class="cls-3" d="M16.8,8.66l-1.24-.29s-.32,0-.41.16-.33,1.13-.33,1.13a.19.19,0,0,0,0,.14c.06.06,3.07,2.23,3.07,2.23a17.67,17.67,0,0,0-3.32,0c-.78.2-2.34,1-3.36,1.19s-4.76.57-5,.6L4.78,7.33A1.76,1.76,0,0,0,3,5.8c-1.23,0-1.42.36-1.48.49a.57.57,0,0,0,0,.5l4.05,6.88A13.17,13.17,0,0,1,1.71,10.9C1.12,10.11.58,6.29,1,5.65s2.57-1,3.51-.94a2.3,2.3,0,0,1,1.14.84c.09.1.13,0,.2.15S5.57,4.23,4.63,4.17a8.53,8.53,0,0,0-2.82.4.21.21,0,0,1-.15-.17c-.07-.21-.22-1.49-.22-1.49a.59.59,0,0,1,.27-.37A24.11,24.11,0,0,1,11.31.76c.68,0,6.09-.09,8.66,1,.22.18.08,1,0,1.54a.65.65,0,0,1-.44.46.89.89,0,0,0-.56.43s.55,5.13.59,5.34-.15.25-.68.28c-.23,0-3,.07-3,.07s-.57-.06-.54-.4.1-.71.24-.71h.53s1.12,0,.71-.14"/><path class="cls-3" d="M12.75,13.19a13.85,13.85,0,0,1,5.39.23s.59.49.52.89c0,0-4.24.23-5.91-1.12"/><path class="cls-3" d="M12.84,17.77s.74-3.21,5.69-2.77c0,0,.34.28-.61,1.24a5.7,5.7,0,0,1-5.08,1.53"/><path class="cls-2" d="M11.85,2.36a7.91,7.91,0,0,1,2.72.37,16.91,16.91,0,0,1,2,.62c.13,0,.12.35,0,.37a26.86,26.86,0,0,0-4.51-.86A16.54,16.54,0,0,0,8,5.55a1.69,1.69,0,0,1-.69,0,15.21,15.21,0,0,1,4.5-3.19"/><path class="cls-2" d="M9.92,5.5A19,19,0,0,1,12.6,4.38a5,5,0,0,1,2-.2c.41.11.85,1.18.87,1.37a5.49,5.49,0,0,1-2.6.51,11.3,11.3,0,0,1-3-.56"/><path class="cls-3" d="M20.06,4a.54.54,0,0,1,.39.19.45.45,0,0,1,0,.55c-.1.1-.2-.1-1-.07,0,0,.36-.71.58-.67"/><path class="cls-3" d="M8,20s3.73,2.33,4.32,3.17l.39,5.15H10L8,20"/><path class="cls-3" d="M14.33,24.7a14,14,0,0,1,2.82,3.61H13.49l.84-3.61"/><path class="cls-1" d="M17.4,4.46a.23.23,0,0,1,.3.18c.27,1.25.63,4,.63,4.17,0,.39-.41.06-.41.06L17.4,4.46"/></g></svg>