<svg xmlns="http://www.w3.org/2000/svg" xmlns:xlink="http://www.w3.org/1999/xlink" viewBox="0 0 1022.47 799.35"><defs><style>.cls-1{fill:none;}.cls-2{fill:#fff;}.cls-3{fill:url(#Nueva_muestra_de_motivo_1);}</style><pattern id="Nueva_muestra_de_motivo_1" data-name="Nueva muestra de motivo 1" width="96" height="172" patternTransform="translate(17.5 15.17)" patternUnits="userSpaceOnUse" viewBox="0 0 96 172"><rect class="cls-1" width="96" height="172"/><path class="cls-2" d="M93.71,154a27.15,27.15,0,0,1,0,36.08l-2.25-2.26a24.11,24.11,0,0,0,0-31.57Z"/><path class="cls-2" d="M-2.29,154A27.15,27.15,0,0,1-2.3,190l-2.25-2.26A23.84,23.84,0,0,0,1.33,172a23.88,23.88,0,0,0-5.89-15.78Z"/><path class="cls-2" d="M45.71,68a27.15,27.15,0,0,1,0,36.08l-2.25-2.26a24.11,24.11,0,0,0,0-31.57Z"/><path class="cls-2" d="M93.71-18A27.15,27.15,0,0,1,93.7,18l-2.25-2.26A23.84,23.84,0,0,0,97.33,0a23.88,23.88,0,0,0-5.89-15.78Z"/><path class="cls-2" d="M-2.29-18A27.15,27.15,0,0,1-2.3,18l-2.25-2.26A23.84,23.84,0,0,0,1.33,0,23.88,23.88,0,0,0-4.56-15.79Z"/></pattern></defs><title>trama-arco</title><g id="Capa_2" data-name="Capa 2"><g id="Capa_1-2" data-name="Capa 1"><rect class="cls-3" width="1022.47" height="799.35"/></g></g></svg>